<?xml version="1.0" encoding="UTF-8" standalone="no"?>
<!-- Created with Inkscape (http://www.inkscape.org/) -->

<svg
   xmlns:dc="http://purl.org/dc/elements/1.1/"
   xmlns:cc="http://creativecommons.org/ns#"
   xmlns:rdf="http://www.w3.org/1999/02/22-rdf-syntax-ns#"
   xmlns:svg="http://www.w3.org/2000/svg"
   xmlns="http://www.w3.org/2000/svg"
   xmlns:sodipodi="http://sodipodi.sourceforge.net/DTD/sodipodi-0.dtd"
   xmlns:inkscape="http://www.inkscape.org/namespaces/inkscape"
   width="1000"
   height="1000"
   id="svg4152"
   version="1.1"
   inkscape:version="0.91 r13725"
   viewBox="0 0 1000 1000"
   sodipodi:docname="fontforge_glyph_at.svg">
  <defs
     id="defs5498" />
  <sodipodi:namedview
     inkscape:window-height="853"
     inkscape:window-width="1329"
     inkscape:pageshadow="2"
     inkscape:pageopacity="0.0"
     borderopacity="1.0"
     bordercolor="#666666"
     pagecolor="#ffffff"
     id="base"
     showgrid="false"
     showguides="true"
     inkscape:guide-bbox="true"
     inkscape:zoom="0.030519269"
     inkscape:cx="-215.2952"
     inkscape:cy="1573.3111"
     inkscape:window-x="108"
     inkscape:window-y="0"
     inkscape:current-layer="layer1"
     inkscape:window-maximized="0"
     inkscape:snap-bbox="true"
     inkscape:bbox-paths="true"
     inkscape:snap-bbox-edge-midpoints="true"
     inkscape:snap-global="true">
    <sodipodi:guide
       orientation="horizontal"
       position="200"
       id="guide5596" />
  </sodipodi:namedview>
  <metadata
     id="metadata5594">
    <rdf:RDF>
      <cc:Work
         rdf:about="">
        <dc:format>image/svg+xml</dc:format>
        <dc:type
           rdf:resource="http://purl.org/dc/dcmitype/StillImage" />
        <dc:title></dc:title>
      </cc:Work>
    </rdf:RDF>
  </metadata>
  <g
     inkscape:label="Layer 1"
     inkscape:groupmode="layer"
     id="layer1">
    <path
       style="fill:#000000;fill-opacity:1;stroke:none;stroke-opacity:1"
       d="m 503.28052,180.84539 c -217.5223,0 -378.68949,169.5425 -378.68698,378.68685 0.003,222.545 161.16875,378.68 378.68698,378.6767 157.13968,0 261.71281,-60.6736 320.43151,-154.1535 l -120.0636,0 c -45.03093,43.8995 -110.42355,70.3803 -199.52955,70.3803 -154.07944,-5e-4 -278.98563,-123.2783 -278.98509,-292.3887 5.4e-4,-162.40765 113.13694,-292.38805 272.27822,-292.38805 167.48388,0 285.69198,129.9804 285.69198,292.38805 0,109.2642 -50.3798,109.0942 -76.50034,99.6916 -24.90248,-8.9635 -34.08977,-51.2041 -34.08977,-92.1568 l 0,-185.98965 -85.4603,0 0,30.1601 c -77.34846,-53.1502 -177.35755,-53.8708 -241.27986,28.4833 -64.43203,83.01015 -44.01052,273.57225 87.39898,297.84795 86.7163,16.0194 139.99567,-9.9305 167.88145,-58.9786 6.81634,-2.6903 37.35623,91.6475 182.6262,52.7225 71.4169,-19.1361 98.27666,-101.304 98.27666,-174.2952 0,-199.08675 -161.15829,-378.68365 -378.67649,-378.68685 z m -13.40329,283.1768 a 87.130187,95.508091 0 0 1 87.1265,95.51005 87.130187,95.508091 0 0 1 -87.1265,95.5103 87.130187,95.508091 0 0 1 -87.13698,-95.5103 87.130187,95.508091 0 0 1 87.13698,-95.51005 z"
       id="rect4247"
       inkscape:connector-curvature="0" />
  </g>
</svg>
