<?xml version="1.0" encoding="UTF-8" standalone="no"?>
<!-- Created with Inkscape (http://www.inkscape.org/) -->

<svg
   xmlns:dc="http://purl.org/dc/elements/1.1/"
   xmlns:cc="http://creativecommons.org/ns#"
   xmlns:rdf="http://www.w3.org/1999/02/22-rdf-syntax-ns#"
   xmlns:svg="http://www.w3.org/2000/svg"
   xmlns="http://www.w3.org/2000/svg"
   xmlns:sodipodi="http://sodipodi.sourceforge.net/DTD/sodipodi-0.dtd"
   xmlns:inkscape="http://www.inkscape.org/namespaces/inkscape"
   width="1000"
   height="1000"
   id="svg4152"
   version="1.1"
   inkscape:version="0.91 r13725"
   viewBox="0 0 1000 1000"
   sodipodi:docname="fontforge_glyph_lower_d.svg">
  <defs
     id="defs5498" />
  <sodipodi:namedview
     inkscape:window-height="853"
     inkscape:window-width="1329"
     inkscape:pageshadow="2"
     inkscape:pageopacity="0.0"
     borderopacity="1.0"
     bordercolor="#666666"
     pagecolor="#ffffff"
     id="base"
     showgrid="false"
     showguides="true"
     inkscape:guide-bbox="true"
     inkscape:zoom="0.054468211"
     inkscape:cx="3974.5168"
     inkscape:cy="-2889.8059"
     inkscape:window-x="162"
     inkscape:window-y="23"
     inkscape:current-layer="layer1"
     inkscape:window-maximized="0"
     inkscape:snap-bbox="true"
     inkscape:bbox-paths="true"
     inkscape:snap-bbox-edge-midpoints="true">
    <sodipodi:guide
       orientation="horizontal"
       position="200"
       id="guide5596" />
  </sodipodi:namedview>
  <metadata
     id="metadata5594">
    <rdf:RDF>
      <cc:Work
         rdf:about="">
        <dc:format>image/svg+xml</dc:format>
        <dc:type
           rdf:resource="http://purl.org/dc/dcmitype/StillImage" />
        <dc:title></dc:title>
      </cc:Work>
    </rdf:RDF>
  </metadata>
  <g
     inkscape:label="Layer 1"
     inkscape:groupmode="layer"
     id="layer1">
    <path
       id="rect4259-8"
       d="m 784.61604,163.28727 0,627.4672 -92.365,0 -10.0897,-45.6885 c -72.1765,73.2249 -252.7908,77.5957 -323.5083,-13.3592 -66.3613,-85.3516 -88.3736,-225.0865 0,-339.8193 40.7895,-52.9564 103.2428,-77.3261 165.2647,-76.2736 54.636,0.9266 108.9141,21.6055 147.7858,59.8352 l 0,-212.1618 112.9125,0 z m -239.6463,257.5037 a 132.75492,141.17919 0 0 0 -132.7562,141.1845 132.75492,141.17919 0 0 0 132.7562,141.1751 132.75492,141.17919 0 0 0 132.756,-141.1751 132.75492,141.17919 0 0 0 -132.756,-141.1845 z"
       style="opacity:1;fill:#000000;fill-opacity:1;stroke:none;stroke-width:1;stroke-miterlimit:4;stroke-dasharray:none;stroke-opacity:1"
       inkscape:connector-curvature="0" />
  </g>
</svg>
