<?xml version="1.0" encoding="UTF-8" standalone="no"?>
<!-- Created with Inkscape (http://www.inkscape.org/) -->

<svg
   xmlns:dc="http://purl.org/dc/elements/1.1/"
   xmlns:cc="http://creativecommons.org/ns#"
   xmlns:rdf="http://www.w3.org/1999/02/22-rdf-syntax-ns#"
   xmlns:svg="http://www.w3.org/2000/svg"
   xmlns="http://www.w3.org/2000/svg"
   xmlns:sodipodi="http://sodipodi.sourceforge.net/DTD/sodipodi-0.dtd"
   xmlns:inkscape="http://www.inkscape.org/namespaces/inkscape"
   width="1000"
   height="1000"
   id="svg4152"
   version="1.1"
   inkscape:version="0.91 r13725"
   viewBox="0 0 1000 1000"
   sodipodi:docname="fontforge_glyph_lower_s.svg">
  <defs
     id="defs5498" />
  <sodipodi:namedview
     inkscape:window-height="853"
     inkscape:window-width="1329"
     inkscape:pageshadow="2"
     inkscape:pageopacity="0.0"
     borderopacity="1.0"
     bordercolor="#666666"
     pagecolor="#ffffff"
     id="base"
     showgrid="false"
     showguides="true"
     inkscape:guide-bbox="true"
     inkscape:zoom="0.054468211"
     inkscape:cx="3974.5168"
     inkscape:cy="-2889.8059"
     inkscape:window-x="162"
     inkscape:window-y="23"
     inkscape:current-layer="layer1"
     inkscape:window-maximized="0"
     inkscape:snap-bbox="true"
     inkscape:bbox-paths="true"
     inkscape:snap-bbox-edge-midpoints="true">
    <sodipodi:guide
       orientation="horizontal"
       position="200"
       id="guide5596" />
  </sodipodi:namedview>
  <metadata
     id="metadata5594">
    <rdf:RDF>
      <cc:Work
         rdf:about="">
        <dc:format>image/svg+xml</dc:format>
        <dc:type
           rdf:resource="http://purl.org/dc/dcmitype/StillImage" />
        <dc:title></dc:title>
      </cc:Work>
    </rdf:RDF>
  </metadata>
  <g
     inkscape:label="Layer 1"
     inkscape:groupmode="layer"
     id="layer1">
    <path
       sodipodi:nodetypes="ccsssssccssssssscc"
       inkscape:connector-curvature="0"
       id="path4469"
       d="m 275.25619,640.32546 109.1,0 c 27.423,97.4983 197.558,81.4012 212.161,29.9758 10.405,-36.6476 -10.461,-46.0024 -60.438,-61.6501 -30.305,-9.4879 -84.957,-15.5817 -112.228,-18.6302 -20.859,-2.3318 -83.217,-24.0953 -118.192,-66.4679 -27.101,-32.8363 -20.755,-91.7259 10.757,-137.7803 74.694,-109.1697 378.909,-84.2724 388.107,64.5266 l -113.581,0 c -24.993,-50.0942 -56.535,-42.871 -105.624,-44.8506 -36.239,-1.4612 -78.272,7.5614 -88.458,34.6903 -11.87,31.6125 9.707,47.582 49.51,58.726 33.076,9.2611 80.139,11.6703 124.46,21.5517 48.033,10.7079 101.229,18.4062 127.628,84.262 15.75,39.2946 11.277,91.9606 -6.492,121.0035 -31.07,50.7892 -94.424,66.8896 -166.229,73.0227 -150.19,12.8289 -245.109,-71.8122 -250.481,-158.3795 z"
       style="fill:#000000;fill-opacity:1;fill-rule:evenodd;stroke:none;stroke-width:0.779688px;stroke-linecap:butt;stroke-linejoin:miter;stroke-opacity:1" />
  </g>
</svg>
