<?xml version="1.0" encoding="UTF-8" standalone="no"?>
<!-- Created with Inkscape (http://www.inkscape.org/) -->

<svg
   xmlns:dc="http://purl.org/dc/elements/1.1/"
   xmlns:cc="http://creativecommons.org/ns#"
   xmlns:rdf="http://www.w3.org/1999/02/22-rdf-syntax-ns#"
   xmlns:svg="http://www.w3.org/2000/svg"
   xmlns="http://www.w3.org/2000/svg"
   xmlns:sodipodi="http://sodipodi.sourceforge.net/DTD/sodipodi-0.dtd"
   xmlns:inkscape="http://www.inkscape.org/namespaces/inkscape"
   width="1000"
   height="1000"
   id="svg4152"
   version="1.1"
   inkscape:version="0.91 r13725"
   viewBox="0 0 1000 1000"
   sodipodi:docname="fontforge_glyph_S.svg">
  <defs
     id="defs5498" />
  <sodipodi:namedview
     inkscape:window-height="853"
     inkscape:window-width="1329"
     inkscape:pageshadow="2"
     inkscape:pageopacity="0.0"
     borderopacity="1.0"
     bordercolor="#666666"
     pagecolor="#ffffff"
     id="base"
     showgrid="false"
     showguides="true"
     inkscape:guide-bbox="true"
     inkscape:zoom="0.05675"
     inkscape:cx="792.74093"
     inkscape:cy="5107.4968"
     inkscape:window-x="108"
     inkscape:window-y="0"
     inkscape:current-layer="layer1"
     inkscape:window-maximized="0"
     inkscape:snap-bbox="true"
     inkscape:bbox-paths="true"
     inkscape:snap-bbox-edge-midpoints="true">
    <sodipodi:guide
       orientation="horizontal"
       position="200"
       id="guide5596" />
  </sodipodi:namedview>
  <metadata
     id="metadata5594">
    <rdf:RDF>
      <cc:Work
         rdf:about="">
        <dc:format>image/svg+xml</dc:format>
        <dc:type
           rdf:resource="http://purl.org/dc/dcmitype/StillImage" />
        <dc:title></dc:title>
      </cc:Work>
    </rdf:RDF>
  </metadata>
  <g
     inkscape:label="Layer 1"
     inkscape:groupmode="layer"
     id="layer1">
    <path
       sodipodi:nodetypes="ccsssssccsssssssc"
       inkscape:connector-curvature="0"
       id="path4347"
       d="m 229.48492,606.12676 120.39,0 c 34.0666,128.345 281.6746,128.0687 309.0012,26.0845 12.9265,-48.2421 -43.2876,-84.6315 -105.3736,-105.2297 -37.6457,-12.4896 -105.5411,-23.1864 -139.4195,-27.1994 -25.9139,-3.0696 -85.7066,-18.344 -129.1549,-74.1225 -33.6699,-43.2254 -44.3389,-106.1981 0.7388,-178.6967 87.3598,-140.5007 447.9116,-103.2655 469.5212,82.2666 l -118.3835,0 c -31.0463,-65.9432 -110.713,-76.8032 -171.6042,-72.4151 -47.5436,3.4261 -92.1854,31.3534 -97.267,72.4151 -5.4543,44.0738 24.6807,59.9613 74.1247,74.631 41.0903,12.1913 99.5558,20.7127 154.6165,33.7201 59.6682,14.096 139.3583,54.8398 158.5509,105.5712 19.5691,51.7268 14.0097,121.0554 -8.0633,159.287 -38.6006,66.8583 -134.847,89.6405 -206.5049,96.1262 -156.5076,14.1655 -304.4987,-78.4828 -311.1724,-192.4383 z"
       style="fill:#000000;fill-opacity:1;fill-rule:evenodd;stroke:none;stroke-width:1px;stroke-linecap:butt;stroke-linejoin:miter;stroke-opacity:1" />
  </g>
</svg>
