<?xml version="1.0" encoding="UTF-8" standalone="no"?>
<!-- Created with Inkscape (http://www.inkscape.org/) -->

<svg
   xmlns:dc="http://purl.org/dc/elements/1.1/"
   xmlns:cc="http://creativecommons.org/ns#"
   xmlns:rdf="http://www.w3.org/1999/02/22-rdf-syntax-ns#"
   xmlns:svg="http://www.w3.org/2000/svg"
   xmlns="http://www.w3.org/2000/svg"
   xmlns:sodipodi="http://sodipodi.sourceforge.net/DTD/sodipodi-0.dtd"
   xmlns:inkscape="http://www.inkscape.org/namespaces/inkscape"
   width="1000"
   height="1000"
   id="svg4152"
   version="1.1"
   inkscape:version="0.91 r13725"
   viewBox="0 0 1000 1000"
   sodipodi:docname="fontforge_glyph_lower_g.svg">
  <defs
     id="defs5498" />
  <sodipodi:namedview
     inkscape:window-height="853"
     inkscape:window-width="1329"
     inkscape:pageshadow="2"
     inkscape:pageopacity="0.0"
     borderopacity="1.0"
     bordercolor="#666666"
     pagecolor="#ffffff"
     id="base"
     showgrid="false"
     showguides="true"
     inkscape:guide-bbox="true"
     inkscape:zoom="0.054468211"
     inkscape:cx="3974.5168"
     inkscape:cy="-2889.8059"
     inkscape:window-x="162"
     inkscape:window-y="23"
     inkscape:current-layer="layer1"
     inkscape:window-maximized="0"
     inkscape:snap-bbox="true"
     inkscape:bbox-paths="true"
     inkscape:snap-bbox-edge-midpoints="true">
    <sodipodi:guide
       orientation="horizontal"
       position="200"
       id="guide5596" />
  </sodipodi:namedview>
  <metadata
     id="metadata5594">
    <rdf:RDF>
      <cc:Work
         rdf:about="">
        <dc:format>image/svg+xml</dc:format>
        <dc:type
           rdf:resource="http://purl.org/dc/dcmitype/StillImage" />
        <dc:title></dc:title>
      </cc:Work>
    </rdf:RDF>
  </metadata>
  <g
     inkscape:label="Layer 1"
     inkscape:groupmode="layer"
     id="layer1">
    <path
       sodipodi:nodetypes="cscccssccccccccc"
       id="rect4259-8-5"
       d="m 287.515,802.2086 c 100.0476,221.2363 473.8994,170.7328 473.8994,-51.54 l 0,-417.9053 -92.3856,0 -10.0922,43.8392 c -72.1929,-70.2615 -252.8481,-74.455 -323.5813,12.8184 -66.3762,81.8975 -88.3936,215.9776 0,326.0671 40.7988,50.8128 103.2661,74.1961 165.3018,73.1862 54.6484,-0.8891 108.9387,-20.731 147.8192,-57.4137 17.1803,157.6903 -191.6304,152.4994 -240.9932,72.5658 z M 521.7142,687.7537 c -73.3378,6e-4 -132.7891,-60.6523 -132.7861,-135.4708 0,-74.8144 59.4519,-135.4621 132.7861,-135.4616 73.334,-5e-4 132.7839,60.6472 132.7859,135.4616 0,74.8185 -59.4485,135.4714 -132.7859,135.4708 z"
       style="opacity:1;fill:#000000;fill-opacity:1;stroke:none;stroke-width:0.97966564;stroke-miterlimit:4;stroke-dasharray:none;stroke-opacity:1"
       inkscape:connector-curvature="0" />
  </g>
</svg>
