<?xml version="1.0" encoding="UTF-8" standalone="no"?>
<!-- Created with Inkscape (http://www.inkscape.org/) -->

<svg
   xmlns:dc="http://purl.org/dc/elements/1.1/"
   xmlns:cc="http://creativecommons.org/ns#"
   xmlns:rdf="http://www.w3.org/1999/02/22-rdf-syntax-ns#"
   xmlns:svg="http://www.w3.org/2000/svg"
   xmlns="http://www.w3.org/2000/svg"
   xmlns:sodipodi="http://sodipodi.sourceforge.net/DTD/sodipodi-0.dtd"
   xmlns:inkscape="http://www.inkscape.org/namespaces/inkscape"
   width="1000"
   height="1000"
   id="svg4152"
   version="1.1"
   inkscape:version="0.91 r13725"
   viewBox="0 0 1000 1000"
   sodipodi:docname="fontforge_glyph.svg">
  <defs
     id="defs5498" />
  <sodipodi:namedview
     inkscape:window-height="853"
     inkscape:window-width="1329"
     inkscape:pageshadow="2"
     inkscape:pageopacity="0.0"
     borderopacity="1.0"
     bordercolor="#666666"
     pagecolor="#ffffff"
     id="base"
     showgrid="false"
     showguides="true"
     inkscape:guide-bbox="true"
     inkscape:zoom="0.054468211"
     inkscape:cx="3974.5168"
     inkscape:cy="-2478.8997"
     inkscape:window-x="111"
     inkscape:window-y="0"
     inkscape:current-layer="layer1"
     inkscape:window-maximized="0"
     inkscape:snap-bbox="true"
     inkscape:bbox-paths="true"
     inkscape:snap-bbox-edge-midpoints="true">
    <sodipodi:guide
       orientation="horizontal"
       position="200"
       id="guide5596" />
  </sodipodi:namedview>
  <metadata
     id="metadata5594">
    <rdf:RDF>
      <cc:Work
         rdf:about="">
        <dc:format>image/svg+xml</dc:format>
        <dc:type
           rdf:resource="http://purl.org/dc/dcmitype/StillImage" />
        <dc:title></dc:title>
      </cc:Work>
    </rdf:RDF>
  </metadata>
  <g
     inkscape:label="Layer 1"
     inkscape:groupmode="layer"
     id="layer1">
    <path
       style="fill:#000000;fill-opacity:1;fill-rule:evenodd;stroke:none;stroke-width:1px;stroke-linecap:butt;stroke-linejoin:miter;stroke-opacity:1"
       d="m 8006.6153,1185.5648 0,93.5946 c -92.108,11.5674 -171.3642,67.4614 -170.4145,182.5542 0.7924,96.0669 91.2515,153.415 218.4048,177.961 56.941,10.9919 137.7208,34.6555 131.0427,103.5374 -10.1209,104.3928 -240.0696,89.6292 -254.0033,-12.9382 l -114.857,0 c 26.8285,112.6384 104.5755,170.6784 189.8273,187.4308 l 0,118.1571 115.0777,0 0,-119.2922 c 94.2944,-19.9057 173.2996,-85.1766 173.9671,-176.5949 1.179,-161.494 -161.6773,-194.2348 -221.642,-205.4558 -41.9392,-7.8484 -128.0985,-26.9347 -126.1872,-85.7436 3.5854,-110.3136 216.7873,-85.2092 218.405,-6.4743 l 118.094,-1.6186 c -2.3659,-77.5337 -75.8468,-133.2296 -162.6369,-154.4075 l 0,-100.71 -115.0777,0 z"
       id="path4493"
       inkscape:connector-curvature="0" />
    <path
       style="fill:#000000;fill-opacity:1;fill-rule:evenodd;stroke:none;stroke-width:1px;stroke-linecap:butt;stroke-linejoin:miter;stroke-opacity:1"
       d="m 6120.6085,1289.4489 11.1831,417.1659 107.0897,0 12.7805,-417.1659 -131.0533,0 z m 3.1951,503.4768 0,110.2849 123.0656,0 0,-110.2849 -123.0656,0 z"
       id="path3565"
       inkscape:connector-curvature="0" />
    <path
       style="fill:#000000;fill-opacity:1;fill-rule:evenodd;stroke:none;stroke-width:1px;stroke-linecap:butt;stroke-linejoin:miter;stroke-opacity:1"
       d="m 6526.5703,1287.8513 11.1934,230.166 94.2989,0 9.5958,-230.166 -115.0881,0 z m 177.4145,0 11.1935,231.7636 97.494,0 9.5855,-231.7636 -118.273,0 z"
       id="path3569"
       inkscape:connector-curvature="0" />
    <path
       style="fill:#000000;fill-opacity:1;fill-rule:evenodd;stroke:none;stroke-width:1px;stroke-linecap:butt;stroke-linejoin:miter;stroke-opacity:1"
       d="m 7226.6324,1287.8513 -24.5101,161.439 -104.9458,0 0,99.0913 89.895,0 -13.3376,87.9086 -76.5574,0 0,97.4939 61.7484,0 -24.9935,164.6236 105.4921,0 24.9937,-164.6236 86.311,0 -24.9937,164.6236 105.4817,0 24.9937,-164.6236 112.4604,0 0,-97.4939 -97.6514,0 13.3377,-87.9086 84.3137,0 0,-99.0913 -69.263,0 24.5102,-161.439 -105.4818,0 -24.5102,161.439 -86.3108,0 24.51,-161.439 -105.4923,0 z m 65.9315,260.5303 86.3108,0 -13.3375,87.9086 -86.311,0 13.3377,-87.9086 z"
       id="path3573"
       inkscape:connector-curvature="0" />
    <path
       style="fill:#000000;fill-opacity:1;stroke:none;stroke-opacity:1"
       d="m 8701.0755,1279.8635 a 168.62196,166.22444 0 0 0 -168.6174,166.221 168.62196,166.22444 0 0 0 168.6174,166.2315 168.62196,166.22444 0 0 0 168.6279,-166.2315 168.62196,166.22444 0 0 0 -168.6279,-166.221 z m 314.0697,6.3905 -319.6612,613.7511 99.0916,0 322.8668,-613.7511 -102.2972,0 z m -312.4722,78.3228 a 82.313083,82.313072 0 0 1 82.317,82.3066 82.313083,82.313072 0 0 1 -82.317,82.317 82.313083,82.313072 0 0 1 -82.3065,-82.317 82.313083,82.313072 0 0 1 82.3065,-82.3066 z m 406.7711,214.1692 a 168.62197,166.22447 0 0 0 -168.6173,166.221 168.62197,166.22447 0 0 0 168.6173,166.2317 168.62197,166.22447 0 0 0 168.6279,-166.2317 168.62197,166.22447 0 0 0 -168.6279,-166.221 z m 1.5977,84.7134 a 82.313089,82.313083 0 0 1 82.3169,82.3064 82.313089,82.313083 0 0 1 -82.3169,82.3171 82.313089,82.313083 0 0 1 -82.3065,-82.3171 82.313089,82.313083 0 0 1 82.3065,-82.3064 z"
       id="path3602"
       inkscape:connector-curvature="0" />
    <path
       style="fill:#000000;fill-opacity:1;fill-rule:evenodd;stroke:none;stroke-width:1px;stroke-linecap:butt;stroke-linejoin:miter;stroke-opacity:1"
       d="m 9576.1136,1288.1456 0,104.3151 87.8138,135.0266 c -50.8631,19.9589 -153.7502,96.0738 -149.899,207.7157 3.792,109.9029 105.4423,181.8792 196.1964,180.0527 68.2684,-1.374 121.6096,-27.6347 163.195,-65.658 l 33.0131,50.7647 120.4591,0 -87.9825,-133.7545 c 61.3575,-104.7436 75.5585,-226.3716 75.5585,-226.3716 l -105.555,0 c 4.8116,1.9243 -2.535,68.1145 -30.1444,134.9421 l -188.4074,-286.4384 255.8114,0 0,-100.5944 -370.059,0 z m 142.2693,323.0774 102.212,157.1611 c -16.0113,16.4009 -34.4615,29.672 -55.7261,37.5954 -48.4524,18.0553 -125.4528,16.6916 -141.5639,-65.8156 -14.3371,-73.4319 60.6511,-114.2662 95.078,-128.9409 z"
       id="path4432"
       inkscape:connector-curvature="0" />
    <path
       style="fill:#000000;fill-opacity:1;stroke:none;stroke-opacity:1"
       d="m 8850.9739,2417.5972 0,136.1301 -122.3404,0 0,99.333 122.3404,0 0,131.537 108.5298,0 0,-131.537 126.9334,0 0,-99.333 -126.9334,0 0,-136.1301 -108.5298,0 z"
       id="rect4437"
       inkscape:connector-curvature="0" />
    <rect
       style="fill:#000000;fill-opacity:1;stroke:none;stroke-opacity:1"
       id="rect4442"
       width="244.15431"
       height="98.27597"
       x="9750.9697"
       y="2569.9194" />
    <path
       style="fill:#000000;fill-opacity:1;fill-rule:evenodd;stroke:none;stroke-width:1px;stroke-linecap:butt;stroke-linejoin:miter;stroke-opacity:1"
       d="m 6121.1686,2302.5665 107.7059,0 167.2275,610.805 -110.5403,0 z"
       id="path4444"
       inkscape:connector-curvature="0" />
    <path
       style="fill:#000000;fill-opacity:1;fill-rule:evenodd;stroke:none;stroke-width:1px;stroke-linecap:butt;stroke-linejoin:miter;stroke-opacity:1"
       d="m 6642.6914,2302.5665 119.0433,0 -9.92,231.0004 -97.7858,0 z"
       id="path4446"
       inkscape:connector-curvature="0" />
    <path
       style="fill:#000000;fill-opacity:1;fill-rule:evenodd;stroke:none;stroke-width:1px;stroke-linecap:butt;stroke-linejoin:miter;stroke-opacity:1"
       d="m 7303.0953,2281.3099 c -380.1302,64.1753 -341.5389,722.4304 0,769.5248 l 0,-102.0974 c -203.2177,-50.1656 -226.5045,-488.2489 0,-562.65 l 0,-104.7774 z"
       id="path4448"
       inkscape:connector-curvature="0" />
    <path
       inkscape:connector-curvature="0"
       style="display:inline;fill:#000000;fill-opacity:1;fill-rule:evenodd;stroke:none;stroke-width:1px;stroke-linecap:butt;stroke-linejoin:miter;stroke-opacity:1"
       d="m 7550.2818,2284.902 c 380.1303,64.1753 341.539,722.4308 0,769.5251 l 0,-102.0974 c 203.2175,-50.1658 226.5044,-488.2489 0,-562.6502 l 0,-104.7775 z"
       id="path4448-6" />
    <path
       style="fill:#000000;fill-opacity:1;fill-rule:evenodd;stroke:none;stroke-width:1px;stroke-linecap:butt;stroke-linejoin:miter;stroke-opacity:1"
       d="m 8216.757,2297.4522 117.7212,0 -23.3933,109.4202 83.7632,-72.4436 58.1058,98.8553 -101.874,36.9768 101.1194,36.9762 -58.1058,98.8558 -83.0086,-70.9346 22.6387,108.6655 -115.4574,0 24.9026,-112.4387 -83.0086,76.2169 -58.8605,-101.1195 104.8926,-33.958 -106.4019,-37.7311 58.8607,-100.3646 85.2722,74.7075 z"
       id="path4468"
       inkscape:connector-curvature="0" />
    <path
       style="fill:#000000;fill-opacity:1;fill-rule:evenodd;stroke:none;stroke-width:1px;stroke-linecap:butt;stroke-linejoin:miter;stroke-opacity:1"
       d="m 9352.9086,2808.2812 0,215.7262 74.0665,0 50.3369,-215.7262 z"
       id="path4470"
       inkscape:connector-curvature="0"
       sodipodi:nodetypes="ccccc" />
    <path
       style="fill:#000000;fill-opacity:1;stroke:none;stroke-opacity:1"
       d="m 7274.4019,3300.6655 c -173.7626,3e-4 -279.7851,135.5509 -279.7852,320.6705 -10e-5,185.1196 104.4193,320.6705 279.7852,320.6705 172.1593,0 278.1784,-135.5581 279.7959,-320.6705 1.6032,-183.5165 -110.8432,-320.6707 -279.7959,-320.6705 z m -0.7987,102.6125 a 166.74998,218.05764 0 0 1 166.7465,218.058 166.74998,218.05764 0 0 1 -166.7465,218.0581 166.74998,218.05764 0 0 1 -166.7466,-218.0581 166.74998,218.05764 0 0 1 166.7466,-218.058 z"
       id="path4476"
       inkscape:connector-curvature="0" />
    <path
       style="fill:#000000;fill-opacity:1;stroke:none;stroke-width:0.98636538;stroke-opacity:1"
       d="m 7776.6176,3314.3709 0,102.623 71.3758,0 0,509.7306 111.5035,0 0,-612.3541 z"
       id="rect4484"
       inkscape:connector-curvature="0"
       sodipodi:nodetypes="ccccccc" />
    <rect
       style="fill:#000000;fill-opacity:1;stroke:none;stroke-width:0.98095065;stroke-opacity:1"
       id="rect4489"
       width="120.45596"
       height="107.24643"
       x="6117.3184"
       y="3820.4766" />
    <path
       style="fill:#000000;fill-opacity:1;fill-rule:evenodd;stroke:none;stroke-width:1px;stroke-linecap:butt;stroke-linejoin:miter;stroke-opacity:1"
       d="m 6491.0415,3927.4228 106.3457,0 164.7065,-612.1369 -107.6427,0 z"
       id="path4491"
       inkscape:connector-curvature="0" />
    <path
       style="fill:#000000;fill-opacity:1;stroke:none;stroke-opacity:1"
       d="m 8344.1698,4328.092 446.4497,0 0,101.0828 -240.913,512.1546 -117.9315,0 240.9146,-512.1546 -328.5198,0 z"
       id="rect4573"
       inkscape:connector-curvature="0"
       sodipodi:nodetypes="cccccccc" />
    <path
       style="fill:#000000;fill-opacity:1;stroke:none;stroke-opacity:1"
       d="m 6401.6944,4326.4056 -283.0304,407.702 0,99.3963 313.3553,0 0,106.1439 106.1334,0 0,-106.1439 84.2404,0 0,-99.3963 -84.2404,0 0,-407.702 z m 30.3249,116.5553 0,291.1467 -202.6605,0 z"
       id="rect4576"
       inkscape:connector-curvature="0"
       sodipodi:nodetypes="cccccccccccccccc" />
    <path
       style="fill:#000000;fill-opacity:1;stroke:none;stroke-width:0.98447633;stroke-opacity:1"
       d="m 6892.162,5487.5625 0,102.8749 121.7095,0 0,-102.8749 -121.7095,0 z m -0.8619,361.4716 0,102.8646 121.7203,0 0,-102.8646 -121.7203,0 z"
       id="rect4586"
       inkscape:connector-curvature="0" />
    <path
       style="display:inline;fill:#000000;fill-opacity:1;stroke:none;stroke-width:0.98447633;stroke-opacity:1"
       d="m 7300.7303,5489.2757 0,102.8752 121.7203,0 0,-102.8752 -121.7203,0 z m -2.5222,361.5031 0,214.1377 78.7957,0 42.8297,-214.1377 -121.6254,0 z"
       id="rect4586-0"
       inkscape:connector-curvature="0" />
    <path
       style="fill:#000000;fill-opacity:1;stroke:none;stroke-opacity:1"
       d="m 8036.5489,5440.4446 -337.4767,144.99 0,117.3584 337.4767,151.0863 0,-98.3348 -241.5488,-110.3375 241.5488,-107.626 0,-97.1364 z"
       id="rect4625"
       inkscape:connector-curvature="0" />
    <path
       inkscape:connector-curvature="0"
       style="display:inline;fill:#000000;fill-opacity:1;stroke:none;stroke-opacity:1"
       d="m 8912.8006,5443.6009 337.4765,144.9902 0,117.3585 -337.4765,151.0861 0,-98.3348 241.5488,-110.3375 -241.5488,-107.6258 0,-97.1367 z"
       id="rect4625-1" />
    <path
       style="fill:#000000;fill-opacity:1;stroke:none;stroke-opacity:1"
       d="m 8305.5084,5503.0232 0,99.3646 339.1898,0 0,-99.3646 -339.1898,0 z m -1.7658,186.6845 0,101.162 339.2946,0 0,-101.162 -339.2946,0 z"
       id="rect4651"
       inkscape:connector-curvature="0" />
    <path
       style="display:inline;fill:#000000;fill-opacity:1;fill-rule:evenodd;stroke:none;stroke-width:1.00508606px;stroke-linecap:butt;stroke-linejoin:miter;stroke-opacity:1"
       d="m 9716.2694,5330.7482 c -106.0626,-0.8403 -217.6315,66.2053 -220.4127,179.4533 l 108.3832,1.7764 c 1.4842,-86.6682 190.7497,-120.7353 191.4973,0.7358 0.6317,102.584 -158.4983,92.4754 -155.7307,250.3037 l 106.0705,-0.2733 c -10.3726,-101.4526 155.4972,-109.5498 159.7679,-231.9527 4.8313,-138.5637 -89.94,-199.254 -189.5755,-200.0434 z m -85.7963,515.9946 0,109.8435 120.0596,0 0,-109.8435 -120.0596,0 z"
       id="path4493-2-5"
       inkscape:connector-curvature="0" />
    <rect
       style="fill:#000000;fill-opacity:1;stroke:none;stroke-opacity:1"
       id="rect4179"
       width="346.14221"
       height="101.47491"
       x="9216.6787"
       y="7005.5156" />
    <path
       inkscape:connector-curvature="0"
       style="display:inline;fill:#000000;fill-opacity:1;stroke:none;stroke-opacity:1"
       d="m 9033.735,6699.3921 -144.9899,-337.4766 -117.3586,0 -151.086,337.4766 98.3344,0 110.3375,-241.5484 107.6265,241.5484 97.1361,0 z"
       id="rect4625-1-7" />
    <path
       style="fill:#000000;fill-opacity:1;stroke:none;stroke-opacity:1"
       d="m 7133.1535,6337.6703 0,768.1375 252.1746,0 0,-106.1754 -137.7066,0 0,-557.437 137.7066,0 0,-104.5251 -252.1746,0 z"
       id="rect4196"
       inkscape:connector-curvature="0" />
    <path
       inkscape:connector-curvature="0"
       style="display:inline;fill:#000000;fill-opacity:1;stroke:none;stroke-opacity:1"
       d="m 8380.7544,6338.5048 0,768.1383 -252.1744,0 0,-106.1756 137.7063,0 0,-557.4369 -137.7063,0 0,-104.5258 252.1744,0 z"
       id="rect4196-1" />
    <path
       style="display:inline;fill:#000000;fill-opacity:1;fill-rule:evenodd;stroke:none;stroke-width:1px;stroke-linecap:butt;stroke-linejoin:miter;stroke-opacity:1"
       d="m 7891.3448,6967.8336 -106.346,0 -164.7063,-612.1374 107.6428,0 z"
       id="path4491-5"
       inkscape:connector-curvature="0" />
    <path
       style="fill:#000000;fill-opacity:1;stroke:none;stroke-opacity:1"
       d="m 6498.3186,6345.1219 c -218.1626,0 -379.8044,170.0416 -379.8017,379.8016 0,223.2 161.6431,379.7947 379.8017,379.7914 157.6022,0 262.483,-60.8521 321.3744,-154.6073 l -120.4167,0 c -45.1634,44.0288 -110.7487,70.5876 -200.117,70.5876 -154.533,-6e-4 -279.8069,-123.6412 -279.8063,-293.2493 6e-4,-162.8858 113.47,-293.2487 273.0797,-293.2487 167.9769,0 286.5331,130.3629 286.5331,293.2487 0,109.5858 -50.5284,109.4152 -76.7257,99.985 -24.9757,-8.9898 -34.19,-51.3548 -34.19,-92.4282 l 0,-186.537 -85.7118,0 0,30.2487 c -77.5764,-53.3066 -177.8798,-54.0291 -241.9902,28.5671 -64.6217,83.2547 -44.1402,274.3777 87.656,298.7248 86.9718,16.0666 140.4079,-9.9597 168.3758,-59.1521 6.8364,-2.6983 37.4661,91.9172 183.1638,52.8776 71.6272,-19.1923 98.5658,-101.6022 98.5658,-174.8083 0,-199.6729 -161.6327,-379.7983 -379.7909,-379.8016 z m -13.4428,284.0104 a 87.386653,95.789226 0 0 1 87.383,95.7912 87.386653,95.789226 0 0 1 -87.383,95.7915 87.386653,95.789226 0 0 1 -87.3935,-95.7915 87.386653,95.789226 0 0 1 87.3935,-95.7912 z"
       id="rect4247"
       inkscape:connector-curvature="0" />
    <path
       style="fill:#000000;fill-opacity:1;fill-rule:evenodd;stroke:none;stroke-width:1px;stroke-linecap:butt;stroke-linejoin:miter;stroke-opacity:1"
       d="m 9816.3664,6338.9091 116.0699,0 95.5887,121.9238 -113.1467,0 z"
       id="path4258"
       inkscape:connector-curvature="0" />
    <path
       style="fill:#000000;fill-opacity:1;fill-rule:evenodd;stroke:none;stroke-width:1px;stroke-linecap:butt;stroke-linejoin:miter;stroke-opacity:1"
       d="m 8997.5027,3468.3076 c 1.8309,-90.7473 114.8336,-164.7575 236.3037,-165.5464 120.5606,-0.7829 212.6357,42.8175 216.2778,160.2061 2.2736,73.278 -39.2653,107.8976 -82.7731,125.4945 52.7987,22.9692 98.7933,53.6063 98.7933,154.8657 0,91.506 -43.0338,199.4639 -236.3031,198.9225 -178.1628,-0.4993 -235.0291,-89.7611 -253.6595,-189.5769 l 118.8193,0 c 13.9278,52.1323 48.3624,87.6407 140.1803,88.113 95.1606,0.4898 125.5396,-46.066 126.8297,-98.7936 1.4796,-60.4796 -43.0139,-95.2135 -113.6494,-94.423 l -86.6081,0.9696 0,-93.4534 82.773,0 c 46.9552,0 100.6115,-7.9048 101.4638,-74.7628 1.4363,-112.6621 -228.5027,-93.8151 -233.6335,-10.6805 z"
       id="path4260"
       inkscape:connector-curvature="0"
       sodipodi:nodetypes="csscssccsssccsscc" />
    <path
       style="fill:#000000;fill-opacity:1;stroke:none;stroke-opacity:1"
       d="m 6933.5246,4329.1895 386.871,0 0,103.166 -290.1531,0 -14.5078,127.3449 c 43.9613,-20.8619 87.9275,-19.7148 131.8838,-20.3779 146.2383,-2.2058 218.209,86.7491 215.3807,207.4552 -3.0768,131.3026 -95.2016,209.3896 -230.7786,209.0625 -138.9541,-0.3352 -232.147,-50.689 -255.1207,-165.6853 l 120.8498,1.4575 c 19.407,37.701 63.8055,59.4756 130.4902,67.1132 76.8431,8.8007 131.2884,-64.9056 130.7129,-110.2396 -0.7994,-62.9491 -46.793,-114.9601 -117.8122,-117.7552 -57.8042,-2.2749 -106.5544,6.4054 -147.1809,36.7569 l -89.6506,-28.8011 z"
       id="rect4262"
       inkscape:connector-curvature="0"
       sodipodi:nodetypes="cccccsssccsssccc" />
    <path
       style="fill:#000000;fill-opacity:1;fill-rule:evenodd;stroke:none;stroke-width:1px;stroke-linecap:butt;stroke-linejoin:miter;stroke-opacity:1"
       d="m 6363.5446,5332.7662 c -128.2766,-1.0361 -241.9723,73.9237 -241.2755,213.1496 0.5531,110.5366 61.5415,187.966 205.7504,202.7863 66.008,6.7839 132.5501,-13.1088 185.024,-60.6865 9.7198,80.5518 -37.4816,185.0241 -137.6539,185.0241 -66.4624,0 -111.3278,-25.5262 -118.4199,-65.1326 l -118.4096,0 c 14.7661,70.2145 76.8926,158.7021 219.067,161.3441 198.1413,3.6823 276.9555,-168.095 270.8725,-333.0412 -10.3912,-281.7576 -159.3417,-302.5908 -264.955,-303.4438 z m 5.9275,96.2115 a 146.54062,113.23592 0 0 1 146.5352,113.2386 146.54062,113.23592 0 0 1 -146.5352,113.2279 146.54062,113.23592 0 0 1 -146.5457,-113.2279 146.54062,113.23592 0 0 1 146.5457,-113.2386 z"
       id="path4265"
       inkscape:connector-curvature="0" />
    <path
       inkscape:connector-curvature="0"
       style="display:inline;fill:#000000;fill-opacity:1;fill-rule:evenodd;stroke:none;stroke-width:1px;stroke-linecap:butt;stroke-linejoin:miter;stroke-opacity:1"
       d="m 7882.1645,4956.8926 c 128.2762,1.036 241.972,-73.9237 241.2752,-213.1496 -0.5531,-110.5366 -61.5413,-187.9662 -205.7502,-202.7866 -66.0082,-6.7838 -132.55,13.1091 -185.0241,60.6869 -9.7199,-80.5522 37.4815,-185.0243 137.654,-185.0243 66.4625,0 111.3275,25.5261 118.4199,65.1326 l 118.4095,0 c -14.7662,-70.2144 -76.8928,-158.702 -219.067,-161.3443 -198.1415,-3.6822 -276.9556,168.0953 -270.8726,333.0414 10.3909,281.7577 159.342,302.5908 264.9553,303.4439 z m -5.9277,-96.2117 a 146.54064,113.23594 0 0 1 -146.5353,-113.2384 146.54064,113.23594 0 0 1 146.5353,-113.2278 146.54064,113.23594 0 0 1 146.5454,113.2278 146.54064,113.23594 0 0 1 -146.5454,113.2384 z"
       id="path4265-3" />
    <path
       style="display:inline;fill:#000000;fill-opacity:1;fill-rule:evenodd;stroke:none;stroke-width:1.01606059px;stroke-linecap:butt;stroke-linejoin:miter;stroke-opacity:1"
       d="m 9554.5358,4759.2478 c 0,-100.7569 -47.7269,-131.2369 -102.5073,-154.0923 45.1401,-17.5096 88.2398,-51.9588 85.8802,-124.8734 -3.7799,-116.806 -99.311,-160.1787 -232.3889,-160.1732 -133.0781,0.01 -228.5993,43.378 -232.3785,160.1841 -2.3588,72.9145 40.7294,107.3638 85.8697,124.8733 -54.7801,22.8553 -102.4969,53.3353 -102.4969,154.0921 0,90.8205 44.4496,197.9199 249.0057,197.9254 204.5563,-0.017 249.016,-107.1154 249.016,-197.936 z m -389.9753,-1.3135 c -1.5354,-60.1797 44.6185,-97.5388 140.9593,-97.5444 96.3408,-0.01 142.4946,37.354 140.9595,97.5334 -1.3382,52.4663 -32.8474,98.7907 -140.9594,98.7963 -108.1122,0.01 -139.6211,-46.3193 -140.9594,-98.7853 z m 16.6167,-260.3724 c -0.7466,-56.166 58.7521,-81.6471 124.3426,-81.6524 65.591,-0.01 125.0892,25.4758 124.3426,81.6415 -0.8842,66.5264 -73.3556,74.3816 -124.3426,74.3908 -50.4268,0.01 -123.4583,-7.8537 -124.3426,-74.3799 z"
       id="path4260-3"
       inkscape:connector-curvature="0"
       sodipodi:nodetypes="scscscscsscscsssscs" />
    <path
       style="fill:#000000;fill-opacity:1;fill-rule:evenodd;stroke:none;stroke-width:1px;stroke-linecap:butt;stroke-linejoin:miter;stroke-opacity:1"
       d="m 8368.4421,3486.3806 -115.0419,0 c 14.3402,-84.5144 77.1405,-180.8228 228.57,-184.6723 109.6734,-2.7882 207.297,52.9404 216.4602,180.1313 6.3551,88.2136 -65.3108,162.3907 -119.5829,196.7819 -126.8189,80.3629 -164.1105,91.8023 -199.8097,143.8022 l 333.0159,0 0,104.446 -463.1946,0 c 0.396,-112.717 10.3513,-144.9979 75.6853,-199.8095 64.6253,-54.2167 149.1985,-93.7158 205.8643,-131.6926 43.9138,-29.4303 59.466,-69.2403 57.5211,-108.987 -5.3367,-109.0541 -202.983,-103.157 -219.4877,0 z"
       id="path4323"
       inkscape:connector-curvature="0"
       sodipodi:nodetypes="ccsssccccsssc" />
    <path
       id="rect4259"
       d="m 3493.4747,6251.5469 0,627.4669 92.3651,0 10.0897,-45.6882 c 72.1765,73.2249 252.7909,77.5957 323.5082,-13.359 66.3613,-85.3518 88.3737,-225.0868 0,-339.8197 -40.7894,-52.9562 -103.2429,-77.3261 -165.2645,-76.2735 -54.6361,0.9268 -108.9142,21.6056 -147.7858,59.8354 l 0,-212.1619 -112.9127,0 z m 239.6463,257.5035 a 132.75492,141.17919 0 0 1 132.7562,141.1848 132.75492,141.17919 0 0 1 -132.7562,141.1748 132.75492,141.17919 0 0 1 -132.756,-141.1748 132.75492,141.17919 0 0 1 132.756,-141.1848 z"
       style="opacity:1;fill:#000000;fill-opacity:1;stroke:none;stroke-width:1;stroke-miterlimit:4;stroke-dasharray:none;stroke-opacity:1"
       inkscape:connector-curvature="0" />
    <path
       id="path4281"
       d="m 2028.1864,5257.048 245.9734,607.6025 145.5577,0 240.7183,-607.6025 -111.2519,0 -202.261,507.8491 -198.7926,-507.8491 -119.9439,0 z"
       style="fill:#000000;fill-opacity:1;fill-rule:evenodd;stroke:none;stroke-width:1px;stroke-linecap:butt;stroke-linejoin:miter;stroke-opacity:1"
       inkscape:connector-curvature="0" />
    <path
       id="rect4208"
       d="m 4035.1882,5251.3305 211.5732,300.0701 -218.2158,318.5162 119.5971,0 160.7453,-230.4078 162.4478,230.4078 132.714,0 -221.8627,-308.5001 213.8539,-310.0862 -122.0356,0 -155.406,221.6733 -159.4207,-221.6733 -123.9905,0 z"
       style="opacity:1;fill:#000000;fill-opacity:1;stroke:none;stroke-opacity:1"
       inkscape:connector-curvature="0" />
    <path
       id="path4134-0"
       d="m 4421.359,185.9669 -242.61,614.17169 115.8448,0 52.4468,-128.95138 297.2533,0 52.4571,128.95138 115.8345,0 -240.424,-614.17169 -150.8025,0 z m 69.9359,104.91419 111.4726,273.20573 -220.7487,0 109.2761,-273.20573 z"
       style="display:inline;opacity:1;fill:#000000;fill-opacity:1;fill-rule:evenodd;stroke:none;stroke-width:1px;stroke-linecap:butt;stroke-linejoin:miter;stroke-opacity:1"
       inkscape:connector-curvature="0" />
    <path
       id="rect4141"
       d="m 4377.6466,1197.9234 0,616.3474 115.8346,0 0,-275.3921 295.0671,0 0,-102.7173 -295.0671,0 0,-131.1376 327.8489,0 0,-107.1004 -443.6835,0 z"
       style="opacity:1;fill:#000000;fill-opacity:1;stroke:none;stroke-opacity:1"
       inkscape:connector-curvature="0" />
    <path
       id="rect4149"
       d="m 3660.999,1197.892 0,612.0381 448.2135,0 0,-102.024 -330.7394,0 0,-166.9041 293.638,0 0,-105.0929 -293.638,0 0,-132.914 318.3687,0 0,-105.1031 -435.8428,0 z"
       style="opacity:1;fill:#000000;fill-opacity:1;stroke:none;stroke-width:0.99503875;stroke-opacity:1"
       inkscape:connector-curvature="0" />
    <path
       id="rect4160"
       d="m 2032.0647,2208.6291 0,612.0381 111.2833,0 0,-272.0181 324.5595,0 0,272.0181 117.4633,0 0,-612.0381 -117.4633,0 0,234.9272 -324.5595,0 0,-234.9272 -111.2833,0 z"
       style="opacity:1;fill:#000000;fill-opacity:1;stroke:none;stroke-width:0.99451035;stroke-opacity:1"
       inkscape:connector-curvature="0" />
    <rect
       y="2211.7373"
       x="2875.9092"
       height="618.1925"
       width="117.45657"
       id="rect4168"
       style="opacity:1;fill:#000000;fill-opacity:1;stroke:none;stroke-opacity:1" />
    <path
       id="rect4170"
       d="m 3055.1832,3222.4775 0,615.1072 111.2728,0 0,-505.789 323.8025,505.789 127.4801,0 0,-615.1072 -111.2731,0 0,446.1536 -277.8933,-446.1536 -173.389,0 z"
       style="opacity:1;fill:#000000;fill-opacity:1;stroke:none;stroke-opacity:1"
       inkscape:connector-curvature="0" />
    <rect
       y="165.60437"
       x="2646.311"
       height="765.67548"
       width="112.56297"
       id="rect4178"
       style="opacity:1;fill:#000000;fill-opacity:1;stroke:none;stroke-width:0.98466504;stroke-opacity:1" />
    <path
       id="rect4180"
       d="m 4432.1007,4238.0498 0,107.2474 219.9919,0 0,505.9887 112.7549,0 0,-505.9887 217.2383,0 0,-107.2474 -549.9851,0 z"
       style="opacity:1;fill:#000000;fill-opacity:1;stroke:none;stroke-opacity:1"
       inkscape:connector-curvature="0" />
    <path
       id="rect4197"
       d="m 4705.3694,7280.0359 0,105.3345 115.4246,0 0,-105.3345 -115.4246,0 z m 0,147.1762 0,467.4999 115.4246,0 0,-467.4999 -115.4246,0 z"
       style="opacity:1;fill:#000000;fill-opacity:1;stroke:none;stroke-opacity:1"
       inkscape:connector-curvature="0" />
    <path
       id="rect4202"
       d="m 4559.1075,2210.6156 0,614.2558 434.9076,0 0,-105.366 -320.5762,0 0,-508.8898 -114.3314,0 z"
       style="opacity:1;fill:#000000;fill-opacity:1;stroke:none;stroke-opacity:1"
       inkscape:connector-curvature="0" />
    <path
       id="rect4207"
       d="m 3765.4299,2212.4444 0,615.9689 114.0686,0 0,-290.3164 84.1668,-63.7979 205.824,354.1143 129.2142,0 0,-3.4893 -247.8337,-416.7139 247.8337,-187.8407 0,-7.925 -148.6794,0 -270.5256,208.2835 0,-208.2835 -114.0686,0 z"
       style="opacity:1;fill:#000000;fill-opacity:1;stroke:none;stroke-opacity:1"
       inkscape:connector-curvature="0" />
    <path
       id="rect4228"
       d="m 4812.4279,5254.3679 248.8637,366.17 0,247.6548 114.8885,0 0,-246.4252 243.1146,-367.3996 -122.4769,0 -177.0465,263.652 -183.805,-263.652 -123.5384,0 z"
       style="opacity:1;fill:#000000;fill-opacity:1;stroke:none;stroke-opacity:1"
       inkscape:connector-curvature="0" />
    <path
       sodipodi:nodetypes="ccsccsc"
       inkscape:connector-curvature="0"
       id="rect4147"
       d="m 3365.2996,2213.7242 107.6306,0 0,438.4955 c 0,155.396 -83.865,178.2081 -209.2805,168.6508 l 0,-96.8969 c 89.0964,3.097 101.6499,-27.7851 101.6499,-77.7333 z"
       style="opacity:1;fill:#000000;fill-opacity:1;stroke:none;stroke-opacity:1" />
    <path
       sodipodi:nodetypes="ccccccccc"
       inkscape:connector-curvature="0"
       id="path4150"
       d="m 2381.181,167.28271 0,104.24556 c -201.2341,41.13093 -214.047,507.75395 0,563.77703 l 0,102.11818 C 2212.8902,908.42053 2131.8267,771.13938 2110.9935,605.53957 l -78.7161,0 0,-108.50044 78.7161,0 c 23.1519,-179.40281 99.7884,-303.26395 270.1875,-329.75642 z"
       style="fill:#000000;fill-opacity:1;fill-rule:evenodd;stroke:none;stroke-width:1px;stroke-linecap:butt;stroke-linejoin:miter;stroke-opacity:1" />
    <path
       sodipodi:nodetypes="ccccccccc"
       inkscape:connector-curvature="0"
       id="path4150-9"
       d="m 3027.6278,170.5981 0,104.24556 c 201.2342,41.13091 212.2207,505.94167 -1.8262,561.96474 l 0,102.11816 c 168.2909,-29.00293 251.1806,-164.47172 272.0136,-330.07152 l 78.7161,0 0,-108.50053 -78.7161,0 C 3274.6634,320.95176 3198.0268,197.09063 3027.6278,170.5981 Z"
       style="fill:#000000;fill-opacity:1;fill-rule:evenodd;stroke:none;stroke-width:1px;stroke-linecap:butt;stroke-linejoin:miter;stroke-opacity:1" />
    <path
       sodipodi:nodetypes="ccssccssc"
       inkscape:connector-curvature="0"
       id="path4167"
       d="m 3604.5191,543.89837 91.8695,0 c 1.8227,-34.85242 19.0043,-26.61257 32.1543,-24.49858 65.2603,10.49138 133.8118,47.76474 194.4572,10.71815 31.1165,-19.00819 32.9065,-69.41247 38.2789,-104.11872 l -94.9319,0 c 4.9094,28.28631 -13.0632,29.26414 -36.7477,27.56074 -61.632,-4.43228 -119.1016,-50.19236 -180.6767,-16.84267 -33.0708,17.91143 -43.0686,70.43326 -44.4036,107.18108 z"
       style="fill:#000000;fill-opacity:1;fill-rule:evenodd;stroke:none;stroke-width:1px;stroke-linecap:butt;stroke-linejoin:miter;stroke-opacity:1" />
    <path
       sodipodi:nodetypes="sccccsssccss"
       inkscape:connector-curvature="0"
       id="rect4169"
       d="m 5105.9501,3221.9415 -330.5501,0 0,613.0157 111.1888,0 0,-240.4031 219.3613,0 c 238.8999,0 262.41,-372.6126 0,-372.6126 z m 0,267.446 -219.3613,0 0,-165.275 219.3613,0 c 111.9926,0 106.1573,165.275 0,165.275 z"
       style="opacity:1;fill:#000000;fill-opacity:1;stroke:none;stroke-width:0.99668878;stroke-opacity:1" />
    <path
       id="rect4181"
       d="m 2041.8813,6273.2194 0,97.9035 323.6974,0 -335.6897,401.0636 0,110.4533 485.5461,0 0,-107.8992 -349.6685,0 341.6702,-409.6507 0,-91.8705 -465.5555,0 z"
       style="opacity:1;fill:#000000;fill-opacity:1;stroke:none;stroke-opacity:1"
       inkscape:connector-curvature="0" />
    <path
       id="rect4194"
       d="m 2029.8258,3223.5288 0,618.3651 105.9969,0 0,-512.358 210.5851,512.358 100.6892,0 206.9801,-512.358 0,512.358 109.9276,0 0,-618.3651 -186.6847,0 -180.4101,465.2504 -183.7313,-465.2504 -183.3528,0 z"
       style="opacity:1;fill:#000000;fill-opacity:1;stroke:none;stroke-opacity:1"
       inkscape:connector-curvature="0" />
    <path
       sodipodi:nodetypes="ssssssssss"
       inkscape:connector-curvature="0"
       id="path4247"
       d="m 4194.6196,3214.5737 c -157.1089,-1.9515 -314.5287,122.8492 -317.1496,311.8418 -2.4216,174.6414 126.5856,324.3746 315.3839,327.786 153.9853,2.7824 320.7019,-120.6172 320.7019,-310.0655 0,-179.4298 -127.102,-327.1791 -318.9362,-329.5623 z m 5.3181,102.7701 c 120.3053,4.0855 198.4457,95.8011 198.4457,221.474 0,112.3191 -89.7662,213.4586 -207.3057,209.0823 -120.3541,-4.4813 -202.8455,-95.8963 -196.6695,-230.3448 5.6879,-123.8313 108.1726,-203.5175 205.5295,-200.2115 z"
       style="fill:#000000;fill-opacity:1;fill-rule:evenodd;stroke:none;stroke-width:1px;stroke-linecap:butt;stroke-linejoin:miter;stroke-opacity:1" />
    <path
       sodipodi:nodetypes="sccssccccsc"
       inkscape:connector-curvature="0"
       id="rect4252"
       d="m 3102.3987,1198.6067 -247.2273,0 0,615.4538 249.0171,0 c 404.8303,0 402.959,-615.4538 -1.7898,-615.4538 z m -1.7898,511.328 -132.0099,0 0,-405.3417 c 53.249,0.09 111.0563,-0.1045 162.277,-4e-4 207.2637,0.4956 232.9826,405.3419 -30.2671,405.3419 z"
       style="opacity:1;fill:#000000;fill-opacity:1;stroke:none;stroke-opacity:1" />
    <path
       sodipodi:nodetypes="ccccssccssccc"
       inkscape:connector-curvature="0"
       id="rect4257"
       d="m 5303.8071,1450.6235 0,100.237 223.3341,0 0,119.5772 c -66.4202,54.8544 -201.0376,87.6486 -286.6413,21.0997 -64.9267,-50.4749 -129.5027,-216.2882 -23.2297,-343.8957 72.6655,-87.2533 232.6178,-71.7755 279.3053,-1.7586 l 119.4535,0 c -12.3249,-131.8444 -365.8705,-274.5496 -524.3816,0 -78.0273,135.1472 -46.0972,400.464 140.5403,458.2231 139.0956,43.0462 325.4268,-5.1403 402.2222,-87.9495 l 0,-265.5332 z"
       style="opacity:1;fill:#000000;fill-opacity:1;stroke:none;stroke-opacity:1" />
    <path
       sodipodi:nodetypes="sccccccccssccss"
       inkscape:connector-curvature="0"
       id="rect4169-5"
       d="m 3250.5187,4245.2594 -328.795,0 0,609.465 109.3718,0 0,-262.5306 120.4498,0 162.6341,262.5306 122.3628,0 -155.4252,-264.5281 c 209.895,-28.1747 220.2124,-344.9359 -30.5983,-344.9359 z m 0,247.4496 -219.4232,0 0,-150.7993 219.4232,0 c 112.0242,0 106.1873,150.7993 0,150.7993 z"
       style="opacity:1;fill:#000000;fill-opacity:1;stroke:none;stroke-width:0.96952343;stroke-opacity:1" />
    <path
       sodipodi:nodetypes="cccccccccccccc"
       id="path4281-8"
       d="m 2879.7356,5258.528 173.8461,608.6377 147.624,0 133.3563,-478.5364 135.0533,478.5364 141.5974,0 167.9919,-608.6353 -101.3268,0 -137.9771,499.3898 -132.382,-499.4415 -144.643,0.052 -129.8996,499.3898 -138.6352,-499.3922 z"
       style="fill:#000000;fill-opacity:1;fill-rule:evenodd;stroke:none;stroke-width:0.84140968px;stroke-linecap:butt;stroke-linejoin:miter;stroke-opacity:1"
       inkscape:connector-curvature="0" />
    <path
       sodipodi:nodetypes="sccsssccsssccscs"
       inkscape:connector-curvature="0"
       id="rect4301"
       d="m 5356.0857,698.78738 -191.3408,0 0,-182.7222 191.3408,0 c 135.5635,0 152.0171,182.7222 0,182.7222 z m 11.4278,-276.29581 -202.7686,0 0,-133.19754 202.7686,0 c 108.1069,0 99.0315,133.19754 0,133.19754 z m 3.8092,-236.92407 -319.8162,0 0,611.22876 333.1487,0 c 223.1688,0 239.6149,-298.71943 76.1857,-334.18237 125.5582,-32.59167 138.4589,-277.04639 -89.5182,-277.04639 z"
       style="opacity:1;fill:#000000;fill-opacity:1;stroke:none;stroke-width:1;stroke-miterlimit:4;stroke-dasharray:none;stroke-opacity:1" />
    <path
       sodipodi:nodetypes="sssccsssccs"
       inkscape:connector-curvature="0"
       id="path4247-2"
       d="m 2328.6456,1188.6743 c -150.6293,0 -301.5309,122.8687 -304.0434,311.8944 -2.3216,174.6718 121.3551,324.437 302.3508,327.8491 113.2354,2.1345 233.572,-62.8176 283.5271,-191.3829 l -116.1708,0 c -34.6285,52.604 -91.1735,87.6755 -158.4959,85.0602 -115.3803,-4.482 -205.0179,-95.9149 -199.0974,-230.3867 5.4532,-123.853 103.693,-203.5496 197.0269,-200.2429 65.3312,2.3146 119.9364,32.7675 155.017,81.5707 l 116.1041,0 c -41.067,-103.4947 -129.1767,-184.3619 -276.2184,-184.3619 z"
       style="fill:#000000;fill-opacity:1;fill-rule:evenodd;stroke:none;stroke-width:0.97920513px;stroke-linecap:butt;stroke-linejoin:miter;stroke-opacity:1" />
    <path
       sodipodi:nodetypes="sssccccsssssccccsss"
       inkscape:connector-curvature="0"
       id="path4247-7"
       d="m 2341.1423,4226.215 c -157.1091,-1.9517 -314.2791,104.8452 -317.1496,311.8419 -2.6992,194.6453 124.5848,322.3738 313.3829,325.7849 57.097,1.0318 117.9285,-13.3188 169.3779,-43.9187 l 29.4607,32.2352 136.6132,0 -88.8019,-95.9596 c 46.1229,-51.96 76.0529,-120.2402 76.0529,-200.4215 0,-179.4298 -111.0979,-326.9805 -318.9361,-329.5622 z m -5.0451,102.6545 c 3.433,-0.043 6.8836,0 10.3633,0.1156 120.3051,4.0854 202.45,95.801 202.45,221.4741 0,45.8132 -13.9375,89.8164 -39.0879,125.5564 l -81.4026,-87.9611 -133.618,0 139.262,152.3474 c -28.0802,13.3817 -60.5334,20.477 -96.4639,19.1393 -120.3539,-4.4812 -203.3038,-85.9132 -196.6694,-230.3447 5.5105,-119.9615 88.7399,-198.9456 195.1665,-200.3269 z"
       style="fill:#000000;fill-opacity:1;fill-rule:evenodd;stroke:none;stroke-width:1px;stroke-linecap:butt;stroke-linejoin:miter;stroke-opacity:1" />
    <path
       sodipodi:nodetypes="sccssccss"
       inkscape:connector-curvature="0"
       id="rect4342"
       d="m 5775.196,4596.757 0,-356.5212 -114.3211,0 0,370.0845 c 0,198.3821 -313.8913,213.133 -313.8913,0 l 0,-370.0845 -120.1332,0 0,356.5212 c 0,365.8251 548.3456,367.579 548.3456,0 z"
       style="opacity:1;fill:#000000;fill-opacity:1;stroke:none;stroke-width:1;stroke-miterlimit:4;stroke-dasharray:none;stroke-opacity:1" />
    <path
       sodipodi:nodetypes="ccsssssccsssssssc"
       inkscape:connector-curvature="0"
       id="path4347"
       d="m 3668.0193,4672.2467 120.7446,0 c 34.1666,128.7227 282.5037,128.4457 309.9107,26.1613 12.9644,-48.3841 -43.4153,-84.8805 -105.6839,-105.5395 -37.7563,-12.5261 -105.8517,-23.2546 -139.8299,-27.2794 -25.9901,-3.0787 -85.9589,-18.3979 -129.5349,-74.3407 -33.7691,-43.3527 -44.4694,-106.5109 0.7408,-179.2227 87.6171,-140.9142 449.2301,-103.5695 470.9034,82.5088 l -118.7321,0 c -31.1376,-66.1375 -111.0388,-77.0294 -172.109,-72.6283 -47.6838,3.4363 -92.4569,31.4457 -97.5535,72.6283 -5.4704,44.2036 24.7533,60.1376 74.3427,74.8506 41.2114,12.2274 99.849,20.7737 155.0718,33.8194 59.8438,14.1376 139.7684,55.0014 159.0175,105.882 19.6265,51.879 14.0508,121.4116 -8.087,159.7557 -38.7145,67.055 -135.244,89.9046 -207.1128,96.4092 -156.9683,14.2074 -305.3949,-78.7138 -312.0884,-193.0047 z"
       style="fill:#000000;fill-opacity:1;fill-rule:evenodd;stroke:none;stroke-width:1px;stroke-linecap:butt;stroke-linejoin:miter;stroke-opacity:1" />
    <path
       id="path3366"
       d="m 3018.7754,6403.7159 c -97.8834,-0.7163 -200.3892,46.2537 -218.8884,143.0456 l 110.5687,0 c 33.3973,-88.5287 219.9854,-55.7826 191.1937,46.0665 -236.3395,-16.2364 -384.9736,44.575 -297.1274,229.2932 38.4984,80.9523 226.4919,85.5174 301.7414,12.5808 l 11.5194,46.0673 92.1335,0 0,-334.0078 c 0,-93.9273 -93.2577,-142.3298 -191.1409,-143.0456 z m 14.2098,273.5731 c 20.6613,-0.059 43.0736,0.6237 66.951,1.9652 7.5465,85.9329 -22.3104,127.973 -182.2387,107.0582 -29.1822,-3.8164 -33.4081,-43.5345 -32.6663,-59.2672 1.6623,-35.26 58.4218,-49.493 147.954,-49.7562 z"
       style="fill:#000000;fill-opacity:1;fill-rule:evenodd;stroke:none;stroke-width:1px;stroke-linecap:butt;stroke-linejoin:miter;stroke-opacity:1"
       inkscape:connector-curvature="0" />
    <path
       id="path4175"
       d="m 4455.644,6403.4843 c -130.9613,0 -237.1238,109.9783 -237.1241,245.637 -1e-4,135.6595 91.2757,245.6371 237.1241,245.6371 103.2401,0 191.0193,-68.3659 223.5757,-163.7619 l -119.5129,0 a 125.46365,144.60386 0 0 1 -105.1245,65.9208 125.46365,144.60386 0 0 1 -125.4618,-144.6116 125.46365,144.60386 0 0 1 125.4618,-144.6004 125.46365,144.60386 0 0 1 98.6289,55.284 l 124.5267,0 c -33.6869,-93.1675 -120.3946,-159.505 -222.0939,-159.505 z"
       style="opacity:1;fill:#000000;fill-opacity:1;stroke:none;stroke-width:1;stroke-miterlimit:4;stroke-dasharray:none;stroke-opacity:1"
       inkscape:connector-curvature="0" />
    <path
       sodipodi:nodetypes="ccccccsccscc"
       inkscape:connector-curvature="0"
       style="opacity:1;fill:#000000;fill-opacity:1;stroke:none;stroke-opacity:1"
       d="m 5105.2796,7282.0059 0,105.3347 115.4247,0 0,-105.3347 z m 0,147.1764 0,467.4997 c 0,28.4419 -8.8876,35.548 -36.3114,37.5868 l 0,95.4308 c 114.2243,7.6727 151.7361,-46.3421 151.7361,-133.0176 l 0,-467.4997 z"
       id="path4228" />
    <path
       sodipodi:nodetypes="cccccssccsc"
       inkscape:connector-curvature="0"
       d="m 4108.2772,7483.642 0,-221.0006 -111.2309,0 0,630.3572 111.2309,0 0,-289.2235 c 0,-94.7424 200.2327,-124.2449 200.2327,8.4081 l 0,280.8148 112.7219,0 0,-268.4554 c 0,-272.4388 -246.3005,-225.5036 -312.9546,-140.9006 z"
       style="opacity:1;fill:#000000;fill-opacity:1;stroke:none;stroke-width:1;stroke-miterlimit:4;stroke-dasharray:none;stroke-opacity:1"
       id="rect4232" />
    <path
       sodipodi:nodetypes="sccccccccccsccss"
       inkscape:connector-curvature="0"
       id="rect4240"
       d="m 2789.1664,7411.2259 0,13.7267 -59.0262,0 0,97.4723 59.0262,0 0,370.6576 111.1994,0 0,-370.6576 74.1295,0 0,-97.4723 -74.1295,0 0,-13.7267 c 0,-47.2035 30.5377,-50.0816 76.2312,-49.8301 l 0,-96.5108 -36.0115,0 c -89.3948,0 -151.4191,17.4499 -151.4191,146.3409 z"
       style="opacity:1;fill:#000000;fill-opacity:1;stroke:none;stroke-width:1;stroke-miterlimit:4;stroke-dasharray:none;stroke-opacity:1" />
    <path
       id="rect4259-8"
       d="m 5392.8085,6248.9762 0,627.4672 -92.365,0 -10.0897,-45.6885 c -72.1765,73.2249 -252.7908,77.5957 -323.5083,-13.3592 -66.3613,-85.3516 -88.3736,-225.0865 0,-339.8193 40.7895,-52.9564 103.2428,-77.3261 165.2647,-76.2736 54.636,0.9266 108.9141,21.6055 147.7858,59.8352 l 0,-212.1618 112.9125,0 z m -239.6463,257.5037 a 132.75492,141.17919 0 0 0 -132.7562,141.1845 132.75492,141.17919 0 0 0 132.7562,141.1751 132.75492,141.17919 0 0 0 132.756,-141.1751 132.75492,141.17919 0 0 0 -132.756,-141.1845 z"
       style="opacity:1;fill:#000000;fill-opacity:1;stroke:none;stroke-width:1;stroke-miterlimit:4;stroke-dasharray:none;stroke-opacity:1"
       inkscape:connector-curvature="0" />
    <path
       sodipodi:nodetypes="sssccsccsscccc"
       inkscape:connector-curvature="0"
       id="path4202"
       d="m 2261.1585,7420.7169 c -129.9343,0 -235.2635,98.7731 -235.2635,243.976 0,152.1781 105.3292,243.9765 235.2635,243.9765 49.8465,0 169.2627,-17.6404 212.4034,-140.5755 l -115.2668,0 c -22.4687,30.1477 -56.8024,44.1432 -96.5481,44.1432 -64.6958,0 -108.4219,-42.4829 -122.7082,-101.0777 l 347.5034,0 c 1.8325,-14.4649 2.9114,-29.8443 2.9114,-46.4665 0,-156.8209 -98.3609,-243.976 -228.2951,-243.976 z m 0.5885,98.7445 c 57.3152,0.3929 101.5962,35.4919 117.7054,95.276 l -236.756,0 c 18.7013,-55.0735 65.336,-95.6429 119.0506,-95.276 z"
       style="opacity:1;fill:#000000;fill-opacity:1;stroke:none;stroke-width:1;stroke-miterlimit:4;stroke-dasharray:none;stroke-opacity:1" />
    <path
       sodipodi:nodetypes="cscccssccccccccc"
       id="rect4259-8-5"
       d="m 3233.6741,7895.2911 c 100.0476,221.2363 473.8994,170.7328 473.8994,-51.54 l 0,-417.9053 -92.3856,0 -10.0922,43.8392 c -72.1929,-70.2615 -252.8481,-74.455 -323.5813,12.8184 -66.3762,81.8975 -88.3936,215.9776 0,326.0671 40.7988,50.8128 103.2661,74.1961 165.3018,73.1862 54.6484,-0.8891 108.9387,-20.731 147.8192,-57.4137 17.1803,157.6903 -191.6304,152.4994 -240.9932,72.5658 z m 234.1992,-114.4549 c -73.3378,6e-4 -132.7891,-60.6523 -132.7861,-135.4708 0,-74.8144 59.4519,-135.4621 132.7861,-135.4616 73.334,-5e-4 132.7839,60.6472 132.7859,135.4616 0,74.8185 -59.4485,135.4714 -132.7859,135.4708 z"
       style="opacity:1;fill:#000000;fill-opacity:1;stroke:none;stroke-width:0.97966564;stroke-miterlimit:4;stroke-dasharray:none;stroke-opacity:1"
       inkscape:connector-curvature="0" />
    <path
       inkscape:connector-curvature="0"
       id="rect4138"
       d="m 10505.513,631.20716 0,631.05134 116.758,0 0,-197.3422 64.061,-54.0968 115.246,251.439 127.88,0 -156.753,-324.37018 168.934,-142.6568 -149.059,0 -170.309,144.03372 0,-308.05808 -116.758,0 z"
       style="opacity:1;fill:#000000;fill-opacity:1;stroke:none;stroke-width:1;stroke-miterlimit:4;stroke-dasharray:none;stroke-opacity:1" />
    <rect
       y="629.81848"
       x="11179.654"
       height="631.05194"
       width="111.19859"
       id="rect4153"
       style="opacity:1;fill:#000000;fill-opacity:1;stroke:none;stroke-width:1;stroke-miterlimit:4;stroke-dasharray:none;stroke-opacity:1" />
    <path
       sodipodi:nodetypes="cccccssccssccscc"
       inkscape:connector-curvature="0"
       id="rect4158"
       d="m 11683.18,855.11363 -11.459,-59.88211 -93.144,0 0,467.02698 115.383,0 0,-296.06434 c 0,-102.62506 180.672,-98.80702 180.672,0.01 l 0,296.05892 116.781,0 0,-296.05892 c 0,-100.23159 180.682,-100.55089 180.682,0 l 0,296.05892 113.986,0 0,-296.05892 c 0,-226.69303 -257.457,-212.56662 -314.135,-92.5572 -40.654,-98.59673 -210.581,-120.51006 -288.766,-18.52875 z"
       style="opacity:1;fill:#000000;fill-opacity:1;stroke:none;stroke-width:1;stroke-miterlimit:4;stroke-dasharray:none;stroke-opacity:1" />
    <path
       sodipodi:nodetypes="cccccsscccc"
       inkscape:connector-curvature="0"
       id="rect4158-4"
       d="m 12674.704,853.09792 -11.887,-59.86966 -96.608,0 0,466.92984 119.673,0 0,-296.00269 c 0,-102.60379 191.564,-98.78659 191.564,0.01 l 0,295.99737 116.953,0 0,-295.99737 c 1.28,-212.40216 -246.523,-209.64191 -319.695,-111.06274 z"
       style="opacity:1;fill:#000000;fill-opacity:1;stroke:none;stroke-width:1.01831865;stroke-miterlimit:4;stroke-dasharray:none;stroke-opacity:1" />
    <path
       sodipodi:nodetypes="ccccssccccccccc"
       id="path4360"
       d="m 10506.071,2411.6913 0,-595.603 92.364,0 13.277,48.8746 c 72.176,-81.4761 249.606,-89.522 320.323,10.1729 62.549,88.182 88.372,225.087 0,339.8198 -40.791,52.9564 -103.243,77.3261 -165.265,76.2734 -54.635,-0.9264 -108.914,-21.6052 -147.785,-59.8351 l 0,180.2974 z m 239.647,-225.639 c 73.32,7e-4 132.758,-63.2113 132.754,-141.1853 0,-77.97 -59.438,-141.1757 -132.754,-141.1749 -73.319,-8e-4 -132.755,63.2049 -132.758,141.1749 0,77.974 59.435,141.186 132.758,141.1853 z"
       style="opacity:1;fill:#000000;fill-opacity:1;stroke:none;stroke-width:1;stroke-miterlimit:4;stroke-dasharray:none;stroke-opacity:1"
       inkscape:connector-curvature="0" />
    <path
       inkscape:connector-curvature="0"
       style="opacity:1;fill:#000000;fill-opacity:1;stroke:none;stroke-width:1;stroke-miterlimit:4;stroke-dasharray:none;stroke-opacity:1"
       d="m 11715.265,2409.2461 0,-595.603 -92.366,0 -13.274,48.8747 c -72.177,-81.4763 -249.606,-89.522 -320.323,10.1725 -62.55,88.1821 -88.375,225.0872 0,339.8202 40.79,52.9561 103.243,77.3259 165.265,76.2735 54.636,-0.9269 108.914,-21.6053 147.787,-59.8353 l 0,180.2974 z m -239.646,-225.6391 c -73.322,8e-4 -132.76,-63.2112 -132.757,-141.1854 0,-77.9698 59.439,-141.1756 132.757,-141.1748 73.318,-8e-4 132.752,63.205 132.754,141.1748 0,77.9742 -59.432,141.1862 -132.754,141.1854 z"
       id="path4467"
       sodipodi:nodetypes="ccccssccccccccc" />
    <path
       sodipodi:nodetypes="ccsssssccssssssscc"
       inkscape:connector-curvature="0"
       id="path4469"
       d="m 12465.853,2127.1083 109.1,0 c 27.423,97.4983 197.558,81.4012 212.161,29.9758 10.405,-36.6476 -10.461,-46.0024 -60.438,-61.6501 -30.305,-9.4879 -84.957,-15.5817 -112.228,-18.6302 -20.859,-2.3318 -83.217,-24.0953 -118.192,-66.4679 -27.101,-32.8363 -20.755,-91.7259 10.757,-137.7803 74.694,-109.1697 378.909,-84.2724 388.107,64.5266 l -113.581,0 c -24.993,-50.0942 -56.535,-42.871 -105.624,-44.8506 -36.239,-1.4612 -78.272,7.5614 -88.458,34.6903 -11.87,31.6125 9.707,47.582 49.51,58.726 33.076,9.2611 80.139,11.6703 124.46,21.5517 48.033,10.7079 101.229,18.4062 127.628,84.262 15.75,39.2946 11.277,91.9606 -6.492,121.0035 -31.07,50.7892 -94.424,66.8896 -166.229,73.0227 -150.19,12.8289 -245.109,-71.8122 -250.481,-158.3795 z"
       style="fill:#000000;fill-opacity:1;fill-rule:evenodd;stroke:none;stroke-width:0.779688px;stroke-linecap:butt;stroke-linejoin:miter;stroke-opacity:1" />
    <path
       sodipodi:nodetypes="cccccsccc"
       inkscape:connector-curvature="0"
       id="rect4471"
       d="m 12004.947,1807.8607 93.213,0 11.828,71.949 c 57.836,-75.0797 90.832,-72.3021 124.135,-70.7533 l 0,95.1185 c -60.87,4.5483 -115.878,46.1287 -115.878,130.181 l 0,243.0079 -113.298,0 z"
       style="opacity:1;fill:#000000;fill-opacity:1;stroke:none;stroke-width:0.98762614;stroke-miterlimit:4;stroke-dasharray:none;stroke-opacity:1" />
    <path
       sodipodi:nodetypes="ssssssssss"
       inkscape:connector-curvature="0"
       id="path4494"
       d="m 13491.659,787.75519 c -119.355,-1.49009 -238.944,93.79675 -240.933,238.09501 -1.841,133.3411 96.163,247.6641 239.59,250.2686 116.981,2.1245 243.633,-92.0924 243.633,-236.7386 0,-136.99699 -96.557,-249.80559 -242.29,-251.62501 z m 4.038,103.89341 c 80.284,2.74008 126.921,57.25342 126.921,143.6709 0,85.7572 -60.168,141.7271 -133.651,138.9772 -73.974,-2.768 -125.494,-52.5582 -120.8,-155.2112 4.318,-94.5468 66.268,-129.52774 127.53,-127.4369 z"
       style="fill:#000000;fill-opacity:1;fill-rule:evenodd;stroke:none;stroke-width:0.76159608px;stroke-linecap:butt;stroke-linejoin:miter;stroke-opacity:1" />
    <path
       id="rect4496"
       d="m 13192.735,1694.7903 0,115.4983 -52.732,0 0,97.9144 52.732,0 0,207.1377 c 0,124.219 15.402,172.2796 203.646,161.9434 l 0,-96.2748 c -53.936,-3.6048 -90.673,14.3123 -90.673,-65.6686 l 0,-207.1377 92.903,0 0,-97.9144 -92.903,0 0,-115.4983 -112.973,0 z"
       style="opacity:1;fill:#000000;fill-opacity:1;stroke:none;stroke-width:1;stroke-miterlimit:4;stroke-dasharray:none;stroke-opacity:1"
       inkscape:connector-curvature="0" />
    <path
       sodipodi:nodetypes="sccssccss"
       inkscape:connector-curvature="0"
       id="rect4502"
       d="m 14105.462,2079.3445 0,-273.3756 -113.806,0 0,267.5093 c 0,151.9108 -197.111,132.2408 -197.111,0 l 0,-267.5093 -112.64,0 0,273.3756 c 0,269.6857 423.557,284.0859 423.557,0 z"
       style="opacity:1;fill:#000000;fill-opacity:1;stroke:none;stroke-width:1;stroke-miterlimit:4;stroke-dasharray:none;stroke-opacity:1" />
    <path
       id="rect4513"
       d="m 10502.602,2821.6147 176.9,470.6213 127.448,0 179.716,-470.6213 -116.12,0 -126.638,341.9223 -127.228,-341.9223 -114.078,0 z"
       style="opacity:1;fill:#000000;fill-opacity:1;stroke:none;stroke-width:1;stroke-miterlimit:4;stroke-dasharray:none;stroke-opacity:1"
       inkscape:connector-curvature="0" />
    <path
       sodipodi:nodetypes="cccccccccccccc"
       inkscape:connector-curvature="0"
       id="path4542"
       d="m 11197.545,2823.2331 137.245,471.231 127.457,0 88.14,-301.8252 87.899,301.8252 129.684,0 137.621,-471.231 -103.112,0 -96.056,342.3638 -98.47,-342.3638 -108.983,0 -96.054,342.3638 -98.461,-342.3638 z"
       style="opacity:1;fill:#000000;fill-opacity:1;stroke:none;stroke-width:0.90569162;stroke-miterlimit:4;stroke-dasharray:none;stroke-opacity:1" />
    <path
       id="rect4547"
       d="m 12115.927,2821.6147 162.849,234.2017 -169.385,235.4736 120.124,0 105.607,-154.4389 107.382,154.4389 128.711,0 -165.254,-234.0022 168.869,-235.6731 -118.337,0 -107.119,155.5318 -109.834,-155.5318 -123.613,0 z"
       style="opacity:1;fill:#000000;fill-opacity:1;stroke:none;stroke-width:0.99856442;stroke-miterlimit:4;stroke-dasharray:none;stroke-opacity:1"
       inkscape:connector-curvature="0" />
    <path
       id="rect4561"
       d="m 12750.984,2828.4462 187.063,451.4507 -58.562,145.1898 111.167,0 240.676,-596.6405 -111.168,0 -126.788,314.3013 -126.711,-314.3013 -115.677,0 z"
       style="opacity:1;fill:#000000;fill-opacity:1;stroke:none;stroke-width:1;stroke-miterlimit:4;stroke-dasharray:none;stroke-opacity:1"
       inkscape:connector-curvature="0" />
    <path
       sodipodi:nodetypes="ccccccccccc"
       inkscape:connector-curvature="0"
       id="rect4572"
       d="m 13844.973,2922.6503 0,-98.303 -383.649,0 0,98.303 241.657,0 -248.488,270.3367 0,96.9368 397.314,0 0,-96.9368 -259.417,0 z"
       style="opacity:1;fill:#000000;fill-opacity:1;stroke:none;stroke-width:1;stroke-miterlimit:4;stroke-dasharray:none;stroke-opacity:1" />
  </g>
</svg>
